<svg data-name="Layer 1" xmlns="http://www.w3.org/2000/svg" viewBox="0 0 200 200.011"><path d="M99.994 0a99.992 99.992 0 00-7.278 199.719c2.406.169 4.824.292 7.278.292a100.006 100.006 0 0099.883-95.248 101.2 101.2 0 00.123-4.757A100.006 100.006 0 0099.994 0z" fill="#37bfda"/><path fill="#f5f9fa" d="M53.055 53.061h93.89v93.89h-93.89z"/><path d="M153.4 46.606a21.668 21.668 0 00-15.9-6.6h-75a22.538 22.538 0 00-22.5 22.5v75a22.539 22.539 0 0022.5 22.5h75a22.54 22.54 0 0022.5-22.5v-75a21.676 21.676 0 00-6.6-15.9zm-13.4 55.9a4.673 4.673 0 01-3.047 4.609 5.439 5.439 0 01-1.954.39 4.648 4.648 0 01-3.515-1.484l-11.249-11.25-41.717 41.72a4.907 4.907 0 01-7.033 0l-7.969-7.97a4.9 4.9 0 010-7.03l41.72-41.72-11.25-11.25a4.51 4.51 0 01-1.094-5.469 4.672 4.672 0 014.608-3.046H135a5.07 5.07 0 015 5v37.5z" fill="#f79048"/></svg>